<?xml version="1.0" encoding="UTF-8" standalone="no"?>
<!DOCTYPE svg PUBLIC "-//W3C//DTD SVG 1.1//EN"
 "http://www.w3.org/Graphics/SVG/1.1/DTD/svg11.dtd">
<!-- Generated by graphviz version 2.47.0 (20210316.0004)
 -->
<!-- Title: dependencies Pages: 1 -->
<svg width="504pt" height="284pt"
 viewBox="0.00 0.00 504.00 284.00" xmlns="http://www.w3.org/2000/svg" xmlns:xlink="http://www.w3.org/1999/xlink">
<g id="graph0" class="graph" transform="scale(1 1) rotate(0) translate(4 280)">
<title>dependencies</title>
<polygon fill="white" stroke="transparent" points="-4,4 -4,-280 500,-280 500,4 -4,4"/>
<text text-anchor="start" x="227.01" y="-42.4" font-family="Times-12" font-weight="bold" font-size="14.00">Legend</text>
<polygon fill="#ffffb3" stroke="transparent" points="14,-10 14,-30 34,-30 34,-10 14,-10"/>
<text text-anchor="start" x="37.63" y="-15.4" font-family="Times-12" font-size="14.00"> &#160;Declarations</text>
<polygon fill="#8dd3c7" stroke="transparent" points="127,-10 127,-30 147,-30 147,-10 127,-10"/>
<text text-anchor="start" x="150.73" y="-15.4" font-family="Times-12" font-size="14.00"> &#160;Module</text>
<polygon fill="#80b1d3" stroke="transparent" points="213,-10 213,-30 233,-30 233,-10 213,-10"/>
<text text-anchor="start" x="236.78" y="-15.4" font-family="Times-12" font-size="14.00"> &#160;Bootstrap</text>
<polygon fill="#fdb462" stroke="transparent" points="310,-10 310,-30 330,-30 330,-10 310,-10"/>
<text text-anchor="start" x="333.67" y="-15.4" font-family="Times-12" font-size="14.00"> &#160;Providers</text>
<polygon fill="#fb8072" stroke="transparent" points="406,-10 406,-30 426,-30 426,-10 406,-10"/>
<text text-anchor="start" x="429.73" y="-15.4" font-family="Times-12" font-size="14.00"> &#160;Exports</text>
<g id="clust1" class="cluster">
<title>cluster_PermissionModule</title>
<polygon fill="none" stroke="black" stroke-dasharray="1,5" points="44,-70 44,-268 452,-268 452,-70 44,-70"/>
</g>
<g id="clust6" class="cluster">
<title>cluster_PermissionModule_providers</title>
<polygon fill="none" stroke="black" points="52,-78 52,-130 444,-130 444,-78 52,-78"/>
</g>
<g id="clust4" class="cluster">
<title>cluster_PermissionModule_exports</title>
<polygon fill="none" stroke="black" points="80,-208 80,-260 381,-260 381,-208 80,-208"/>
</g>
<!-- PermissionRepository  -->
<g id="node1" class="node">
<title>PermissionRepository </title>
<polygon fill="#fb8072" stroke="black" points="372.66,-252 229.34,-252 229.34,-216 372.66,-216 372.66,-252"/>
<text text-anchor="middle" x="301" y="-229.8" font-family="Times,serif" font-size="14.00">PermissionRepository </text>
</g>
<!-- PermissionService  -->
<g id="node2" class="node">
<title>PermissionService </title>
<polygon fill="#fb8072" stroke="black" points="211.7,-252 88.3,-252 88.3,-216 211.7,-216 211.7,-252"/>
<text text-anchor="middle" x="150" y="-229.8" font-family="Times,serif" font-size="14.00">PermissionService </text>
</g>
<!-- PermissionModule -->
<g id="node3" class="node">
<title>PermissionModule</title>
<polygon fill="#8dd3c7" stroke="black" points="238.77,-187 235.77,-191 214.77,-191 211.77,-187 117.23,-187 117.23,-151 238.77,-151 238.77,-187"/>
<text text-anchor="middle" x="178" y="-164.8" font-family="Times,serif" font-size="14.00">PermissionModule</text>
</g>
<!-- PermissionModule&#45;&gt;PermissionRepository  -->
<g id="edge1" class="edge">
<title>PermissionModule&#45;&gt;PermissionRepository </title>
<path fill="none" stroke="black" stroke-dasharray="5,2" d="M234.15,-187.11C234.15,-187.11 234.15,-205.99 234.15,-205.99"/>
<polygon fill="black" stroke="black" points="230.65,-205.99 234.15,-215.99 237.65,-205.99 230.65,-205.99"/>
</g>
<!-- PermissionModule&#45;&gt;PermissionService  -->
<g id="edge2" class="edge">
<title>PermissionModule&#45;&gt;PermissionService </title>
<path fill="none" stroke="black" stroke-dasharray="5,2" d="M164.48,-187.11C164.48,-187.11 164.48,-205.99 164.48,-205.99"/>
<polygon fill="black" stroke="black" points="160.98,-205.99 164.48,-215.99 167.98,-205.99 160.98,-205.99"/>
</g>
<!-- PermissionRepository -->
<g id="node4" class="node">
<title>PermissionRepository</title>
<ellipse fill="#fdb462" stroke="black" cx="340" cy="-104" rx="96.17" ry="18"/>
<text text-anchor="middle" x="340" y="-99.8" font-family="Times,serif" font-size="14.00">PermissionRepository</text>
</g>
<!-- PermissionRepository&#45;&gt;PermissionModule -->
<g id="edge3" class="edge">
<title>PermissionRepository&#45;&gt;PermissionModule</title>
<path fill="none" stroke="black" d="M243.51,-104C236.67,-104 232.4,-104 232.4,-104 232.4,-104 232.4,-140.89 232.4,-140.89"/>
<polygon fill="black" stroke="black" points="228.9,-140.89 232.4,-150.89 235.9,-140.89 228.9,-140.89"/>
</g>
<!-- PermissionService -->
<g id="node5" class="node">
<title>PermissionService</title>
<ellipse fill="#fdb462" stroke="black" cx="143" cy="-104" rx="82.82" ry="18"/>
<text text-anchor="middle" x="143" y="-99.8" font-family="Times,serif" font-size="14.00">PermissionService</text>
</g>
<!-- PermissionService&#45;&gt;PermissionModule -->
<g id="edge4" class="edge">
<title>PermissionService&#45;&gt;PermissionModule</title>
<path fill="none" stroke="black" d="M171.51,-121.08C171.51,-121.08 171.51,-140.9 171.51,-140.9"/>
<polygon fill="black" stroke="black" points="168.01,-140.9 171.51,-150.9 175.01,-140.9 168.01,-140.9"/>
</g>
</g>
</svg>
