<?xml version="1.0" encoding="UTF-8" standalone="no"?>
<!DOCTYPE svg PUBLIC "-//W3C//DTD SVG 1.1//EN"
 "http://www.w3.org/Graphics/SVG/1.1/DTD/svg11.dtd">
<!-- Generated by graphviz version 2.47.0 (20210316.0004)
 -->
<!-- Title: dependencies Pages: 1 -->
<svg width="1384pt" height="284pt"
 viewBox="0.00 0.00 1384.00 284.00" xmlns="http://www.w3.org/2000/svg" xmlns:xlink="http://www.w3.org/1999/xlink">
<g id="graph0" class="graph" transform="scale(1 1) rotate(0) translate(4 280)">
<title>dependencies</title>
<polygon fill="white" stroke="transparent" points="-4,4 -4,-280 1380,-280 1380,4 -4,4"/>
<text text-anchor="start" x="667.01" y="-42.4" font-family="Times-12" font-weight="bold" font-size="14.00">Legend</text>
<polygon fill="#ffffb3" stroke="transparent" points="454,-10 454,-30 474,-30 474,-10 454,-10"/>
<text text-anchor="start" x="477.63" y="-15.4" font-family="Times-12" font-size="14.00"> &#160;Declarations</text>
<polygon fill="#8dd3c7" stroke="transparent" points="567,-10 567,-30 587,-30 587,-10 567,-10"/>
<text text-anchor="start" x="590.73" y="-15.4" font-family="Times-12" font-size="14.00"> &#160;Module</text>
<polygon fill="#80b1d3" stroke="transparent" points="653,-10 653,-30 673,-30 673,-10 653,-10"/>
<text text-anchor="start" x="676.78" y="-15.4" font-family="Times-12" font-size="14.00"> &#160;Bootstrap</text>
<polygon fill="#fdb462" stroke="transparent" points="750,-10 750,-30 770,-30 770,-10 750,-10"/>
<text text-anchor="start" x="773.67" y="-15.4" font-family="Times-12" font-size="14.00"> &#160;Providers</text>
<polygon fill="#fb8072" stroke="transparent" points="846,-10 846,-30 866,-30 866,-10 846,-10"/>
<text text-anchor="start" x="869.73" y="-15.4" font-family="Times-12" font-size="14.00"> &#160;Exports</text>
<g id="clust1" class="cluster">
<title>cluster_AuthModule</title>
<polygon fill="none" stroke="black" stroke-dasharray="1,5" points="8,-70 8,-268 1368,-268 1368,-70 8,-70"/>
</g>
<g id="clust3" class="cluster">
<title>cluster_AuthModule_imports</title>
<polygon fill="none" stroke="black" points="910,-78 910,-130 1360,-130 1360,-78 910,-78"/>
</g>
<g id="clust4" class="cluster">
<title>cluster_AuthModule_exports</title>
<polygon fill="none" stroke="black" points="578,-208 578,-260 978,-260 978,-208 578,-208"/>
</g>
<g id="clust6" class="cluster">
<title>cluster_AuthModule_providers</title>
<polygon fill="none" stroke="black" points="16,-78 16,-130 902,-130 902,-78 16,-78"/>
</g>
<!-- HashingModule -->
<g id="node1" class="node">
<title>HashingModule</title>
<polygon fill="#8dd3c7" stroke="black" points="1352.21,-122 1349.21,-126 1328.21,-126 1325.21,-122 1245.79,-122 1245.79,-86 1352.21,-86 1352.21,-122"/>
<text text-anchor="middle" x="1299" y="-99.8" font-family="Times,serif" font-size="14.00">HashingModule</text>
</g>
<!-- AuthModule -->
<g id="node5" class="node">
<title>AuthModule</title>
<polygon fill="#8dd3c7" stroke="black" points="842.55,-187 839.55,-191 818.55,-191 815.55,-187 755.45,-187 755.45,-151 842.55,-151 842.55,-187"/>
<text text-anchor="middle" x="799" y="-164.8" font-family="Times,serif" font-size="14.00">AuthModule</text>
</g>
<!-- HashingModule&#45;&gt;AuthModule -->
<g id="edge1" class="edge">
<title>HashingModule&#45;&gt;AuthModule</title>
<path fill="none" stroke="black" d="M1299,-122.28C1299,-143.32 1299,-175 1299,-175 1299,-175 852.93,-175 852.93,-175"/>
<polygon fill="black" stroke="black" points="852.93,-171.5 842.93,-175 852.93,-178.5 852.93,-171.5"/>
</g>
<!-- RoleModule -->
<g id="node2" class="node">
<title>RoleModule</title>
<polygon fill="#8dd3c7" stroke="black" points="1227.99,-122 1224.99,-126 1203.99,-126 1200.99,-122 1142.01,-122 1142.01,-86 1227.99,-86 1227.99,-122"/>
<text text-anchor="middle" x="1185" y="-99.8" font-family="Times,serif" font-size="14.00">RoleModule</text>
</g>
<!-- RoleModule&#45;&gt;AuthModule -->
<g id="edge2" class="edge">
<title>RoleModule&#45;&gt;AuthModule</title>
<path fill="none" stroke="black" d="M1185,-122.11C1185,-141.34 1185,-169 1185,-169 1185,-169 852.9,-169 852.9,-169"/>
<polygon fill="black" stroke="black" points="852.9,-165.5 842.9,-169 852.9,-172.5 852.9,-165.5"/>
</g>
<!-- SessionModule -->
<g id="node3" class="node">
<title>SessionModule</title>
<polygon fill="#8dd3c7" stroke="black" points="1124.33,-122 1121.33,-126 1100.33,-126 1097.33,-122 1021.67,-122 1021.67,-86 1124.33,-86 1124.33,-122"/>
<text text-anchor="middle" x="1073" y="-99.8" font-family="Times,serif" font-size="14.00">SessionModule</text>
</g>
<!-- SessionModule&#45;&gt;AuthModule -->
<g id="edge3" class="edge">
<title>SessionModule&#45;&gt;AuthModule</title>
<path fill="none" stroke="black" d="M1073,-122.02C1073,-139.37 1073,-163 1073,-163 1073,-163 852.72,-163 852.72,-163"/>
<polygon fill="black" stroke="black" points="852.72,-159.5 842.72,-163 852.72,-166.5 852.72,-159.5"/>
</g>
<!-- UserModule -->
<g id="node4" class="node">
<title>UserModule</title>
<polygon fill="#8dd3c7" stroke="black" points="1003.98,-122 1000.98,-126 979.98,-126 976.98,-122 918.02,-122 918.02,-86 1003.98,-86 1003.98,-122"/>
<text text-anchor="middle" x="961" y="-99.8" font-family="Times,serif" font-size="14.00">UserModule</text>
</g>
<!-- UserModule&#45;&gt;AuthModule -->
<g id="edge4" class="edge">
<title>UserModule&#45;&gt;AuthModule</title>
<path fill="none" stroke="black" d="M944.24,-122.24C944.24,-137.57 944.24,-157 944.24,-157 944.24,-157 852.58,-157 852.58,-157"/>
<polygon fill="black" stroke="black" points="852.58,-153.5 842.58,-157 852.58,-160.5 852.58,-153.5"/>
</g>
<!-- AuthRepository  -->
<g id="node6" class="node">
<title>AuthRepository </title>
<polygon fill="#fb8072" stroke="black" points="970.43,-252 861.57,-252 861.57,-216 970.43,-216 970.43,-252"/>
<text text-anchor="middle" x="916" y="-229.8" font-family="Times,serif" font-size="14.00">AuthRepository </text>
</g>
<!-- AuthModule&#45;&gt;AuthRepository  -->
<g id="edge5" class="edge">
<title>AuthModule&#45;&gt;AuthRepository </title>
<path fill="none" stroke="black" stroke-dasharray="5,2" d="M842.59,-181C860.84,-181 877.88,-181 877.88,-181 877.88,-181 877.88,-205.76 877.88,-205.76"/>
<polygon fill="black" stroke="black" points="874.38,-205.76 877.88,-215.76 881.38,-205.76 874.38,-205.76"/>
</g>
<!-- AuthService  -->
<g id="node7" class="node">
<title>AuthService </title>
<polygon fill="#fb8072" stroke="black" points="843.98,-252 754.02,-252 754.02,-216 843.98,-216 843.98,-252"/>
<text text-anchor="middle" x="799" y="-229.8" font-family="Times,serif" font-size="14.00">AuthService </text>
</g>
<!-- AuthModule&#45;&gt;AuthService  -->
<g id="edge6" class="edge">
<title>AuthModule&#45;&gt;AuthService </title>
<path fill="none" stroke="black" stroke-dasharray="5,2" d="M799,-187.11C799,-187.11 799,-205.99 799,-205.99"/>
<polygon fill="black" stroke="black" points="795.5,-205.99 799,-215.99 802.5,-205.99 795.5,-205.99"/>
</g>
<!-- PayloadMapperService  -->
<g id="node8" class="node">
<title>PayloadMapperService </title>
<polygon fill="#fb8072" stroke="black" points="736.11,-252 585.89,-252 585.89,-216 736.11,-216 736.11,-252"/>
<text text-anchor="middle" x="661" y="-229.8" font-family="Times,serif" font-size="14.00">PayloadMapperService </text>
</g>
<!-- AuthModule&#45;&gt;PayloadMapperService  -->
<g id="edge7" class="edge">
<title>AuthModule&#45;&gt;PayloadMapperService </title>
<path fill="none" stroke="black" stroke-dasharray="5,2" d="M755.29,-181C737,-181 719.91,-181 719.91,-181 719.91,-181 719.91,-205.76 719.91,-205.76"/>
<polygon fill="black" stroke="black" points="716.41,-205.76 719.91,-215.76 723.41,-205.76 716.41,-205.76"/>
</g>
<!-- AccessTokenStrategy -->
<g id="node9" class="node">
<title>AccessTokenStrategy</title>
<ellipse fill="#fdb462" stroke="black" cx="799" cy="-104" rx="95.46" ry="18"/>
<text text-anchor="middle" x="799" y="-99.8" font-family="Times,serif" font-size="14.00">AccessTokenStrategy</text>
</g>
<!-- AccessTokenStrategy&#45;&gt;AuthModule -->
<g id="edge8" class="edge">
<title>AccessTokenStrategy&#45;&gt;AuthModule</title>
<path fill="none" stroke="black" d="M799,-122.11C799,-122.11 799,-140.99 799,-140.99"/>
<polygon fill="black" stroke="black" points="795.5,-140.99 799,-150.99 802.5,-140.99 795.5,-140.99"/>
</g>
<!-- AuthRepository -->
<g id="node10" class="node">
<title>AuthRepository</title>
<ellipse fill="#fdb462" stroke="black" cx="613" cy="-104" rx="72.95" ry="18"/>
<text text-anchor="middle" x="613" y="-99.8" font-family="Times,serif" font-size="14.00">AuthRepository</text>
</g>
<!-- AuthRepository&#45;&gt;AuthModule -->
<g id="edge9" class="edge">
<title>AuthRepository&#45;&gt;AuthModule</title>
<path fill="none" stroke="black" d="M635.83,-121.35C635.83,-136.81 635.83,-157 635.83,-157 635.83,-157 745.27,-157 745.27,-157"/>
<polygon fill="black" stroke="black" points="745.27,-160.5 755.27,-157 745.27,-153.5 745.27,-160.5"/>
</g>
<!-- CookieService -->
<g id="node11" class="node">
<title>CookieService</title>
<ellipse fill="#fdb462" stroke="black" cx="454" cy="-104" rx="67.78" ry="18"/>
<text text-anchor="middle" x="454" y="-99.8" font-family="Times,serif" font-size="14.00">CookieService</text>
</g>
<!-- CookieService&#45;&gt;AuthModule -->
<g id="edge10" class="edge">
<title>CookieService&#45;&gt;AuthModule</title>
<path fill="none" stroke="black" d="M454,-122.02C454,-139.37 454,-163 454,-163 454,-163 745.31,-163 745.31,-163"/>
<polygon fill="black" stroke="black" points="745.31,-166.5 755.31,-163 745.31,-159.5 745.31,-166.5"/>
</g>
<!-- LocalStrategy -->
<g id="node12" class="node">
<title>LocalStrategy</title>
<ellipse fill="#fdb462" stroke="black" cx="303" cy="-104" rx="65.41" ry="18"/>
<text text-anchor="middle" x="303" y="-99.8" font-family="Times,serif" font-size="14.00">LocalStrategy</text>
</g>
<!-- LocalStrategy&#45;&gt;AuthModule -->
<g id="edge11" class="edge">
<title>LocalStrategy&#45;&gt;AuthModule</title>
<path fill="none" stroke="black" d="M303,-122.11C303,-141.34 303,-169 303,-169 303,-169 745.42,-169 745.42,-169"/>
<polygon fill="black" stroke="black" points="745.42,-172.5 755.42,-169 745.42,-165.5 745.42,-172.5"/>
</g>
<!-- RefreshTokenStrategy -->
<g id="node13" class="node">
<title>RefreshTokenStrategy</title>
<ellipse fill="#fdb462" stroke="black" cx="122" cy="-104" rx="97.83" ry="18"/>
<text text-anchor="middle" x="122" y="-99.8" font-family="Times,serif" font-size="14.00">RefreshTokenStrategy</text>
</g>
<!-- RefreshTokenStrategy&#45;&gt;AuthModule -->
<g id="edge12" class="edge">
<title>RefreshTokenStrategy&#45;&gt;AuthModule</title>
<path fill="none" stroke="black" d="M122,-122.28C122,-143.32 122,-175 122,-175 122,-175 745.36,-175 745.36,-175"/>
<polygon fill="black" stroke="black" points="745.36,-178.5 755.36,-175 745.36,-171.5 745.36,-178.5"/>
</g>
</g>
</svg>
