<?xml version="1.0" encoding="UTF-8" standalone="no"?>
<!DOCTYPE svg PUBLIC "-//W3C//DTD SVG 1.1//EN"
 "http://www.w3.org/Graphics/SVG/1.1/DTD/svg11.dtd">
<!-- Generated by graphviz version 2.47.0 (20210316.0004)
 -->
<!-- Title: dependencies Pages: 1 -->
<svg width="504pt" height="284pt"
 viewBox="0.00 0.00 504.00 284.00" xmlns="http://www.w3.org/2000/svg" xmlns:xlink="http://www.w3.org/1999/xlink">
<g id="graph0" class="graph" transform="scale(1 1) rotate(0) translate(4 280)">
<title>dependencies</title>
<polygon fill="white" stroke="transparent" points="-4,4 -4,-280 500,-280 500,4 -4,4"/>
<text text-anchor="start" x="227.01" y="-42.4" font-family="Times-12" font-weight="bold" font-size="14.00">Legend</text>
<polygon fill="#ffffb3" stroke="transparent" points="14,-10 14,-30 34,-30 34,-10 14,-10"/>
<text text-anchor="start" x="37.63" y="-15.4" font-family="Times-12" font-size="14.00"> &#160;Declarations</text>
<polygon fill="#8dd3c7" stroke="transparent" points="127,-10 127,-30 147,-30 147,-10 127,-10"/>
<text text-anchor="start" x="150.73" y="-15.4" font-family="Times-12" font-size="14.00"> &#160;Module</text>
<polygon fill="#80b1d3" stroke="transparent" points="213,-10 213,-30 233,-30 233,-10 213,-10"/>
<text text-anchor="start" x="236.78" y="-15.4" font-family="Times-12" font-size="14.00"> &#160;Bootstrap</text>
<polygon fill="#fdb462" stroke="transparent" points="310,-10 310,-30 330,-30 330,-10 310,-10"/>
<text text-anchor="start" x="333.67" y="-15.4" font-family="Times-12" font-size="14.00"> &#160;Providers</text>
<polygon fill="#fb8072" stroke="transparent" points="406,-10 406,-30 426,-30 426,-10 406,-10"/>
<text text-anchor="start" x="429.73" y="-15.4" font-family="Times-12" font-size="14.00"> &#160;Exports</text>
<g id="clust1" class="cluster">
<title>cluster_ProfileModule</title>
<polygon fill="none" stroke="black" stroke-dasharray="1,5" points="77,-70 77,-268 419,-268 419,-70 77,-70"/>
</g>
<g id="clust6" class="cluster">
<title>cluster_ProfileModule_providers</title>
<polygon fill="none" stroke="black" points="85,-78 85,-130 411,-130 411,-78 85,-78"/>
</g>
<g id="clust4" class="cluster">
<title>cluster_ProfileModule_exports</title>
<polygon fill="none" stroke="black" points="107,-208 107,-260 360,-260 360,-208 107,-208"/>
</g>
<!-- ProfileRepository  -->
<g id="node1" class="node">
<title>ProfileRepository </title>
<polygon fill="#fb8072" stroke="black" points="351.54,-252 232.46,-252 232.46,-216 351.54,-216 351.54,-252"/>
<text text-anchor="middle" x="292" y="-229.8" font-family="Times,serif" font-size="14.00">ProfileRepository </text>
</g>
<!-- ProfileService  -->
<g id="node2" class="node">
<title>ProfileService </title>
<polygon fill="#fb8072" stroke="black" points="214.58,-252 115.42,-252 115.42,-216 214.58,-216 214.58,-252"/>
<text text-anchor="middle" x="165" y="-229.8" font-family="Times,serif" font-size="14.00">ProfileService </text>
</g>
<!-- ProfileModule -->
<g id="node3" class="node">
<title>ProfileModule</title>
<polygon fill="#8dd3c7" stroke="black" points="235.65,-187 232.65,-191 211.65,-191 208.65,-187 138.35,-187 138.35,-151 235.65,-151 235.65,-187"/>
<text text-anchor="middle" x="187" y="-164.8" font-family="Times,serif" font-size="14.00">ProfileModule</text>
</g>
<!-- ProfileModule&#45;&gt;ProfileRepository  -->
<g id="edge1" class="edge">
<title>ProfileModule&#45;&gt;ProfileRepository </title>
<path fill="none" stroke="black" stroke-dasharray="5,2" d="M235.78,-169C238.15,-169 239.56,-169 239.56,-169 239.56,-169 239.56,-205.89 239.56,-205.89"/>
<polygon fill="black" stroke="black" points="236.06,-205.89 239.56,-215.89 243.06,-205.89 236.06,-205.89"/>
</g>
<!-- ProfileModule&#45;&gt;ProfileService  -->
<g id="edge2" class="edge">
<title>ProfileModule&#45;&gt;ProfileService </title>
<path fill="none" stroke="black" stroke-dasharray="5,2" d="M176.48,-187.11C176.48,-187.11 176.48,-205.99 176.48,-205.99"/>
<polygon fill="black" stroke="black" points="172.98,-205.99 176.48,-215.99 179.98,-205.99 172.98,-205.99"/>
</g>
<!-- ProfileRepository -->
<g id="node4" class="node">
<title>ProfileRepository</title>
<ellipse fill="#fdb462" stroke="black" cx="323" cy="-104" rx="79.89" ry="18"/>
<text text-anchor="middle" x="323" y="-99.8" font-family="Times,serif" font-size="14.00">ProfileRepository</text>
</g>
<!-- ProfileRepository&#45;&gt;ProfileModule -->
<g id="edge3" class="edge">
<title>ProfileRepository&#45;&gt;ProfileModule</title>
<path fill="none" stroke="black" d="M243.02,-104C235.46,-104 230.55,-104 230.55,-104 230.55,-104 230.55,-140.89 230.55,-140.89"/>
<polygon fill="black" stroke="black" points="227.05,-140.89 230.55,-150.89 234.05,-140.89 227.05,-140.89"/>
</g>
<!-- ProfileService -->
<g id="node5" class="node">
<title>ProfileService</title>
<ellipse fill="#fdb462" stroke="black" cx="159" cy="-104" rx="66.05" ry="18"/>
<text text-anchor="middle" x="159" y="-99.8" font-family="Times,serif" font-size="14.00">ProfileService</text>
</g>
<!-- ProfileService&#45;&gt;ProfileModule -->
<g id="edge4" class="edge">
<title>ProfileService&#45;&gt;ProfileModule</title>
<path fill="none" stroke="black" d="M181.72,-121.08C181.72,-121.08 181.72,-140.9 181.72,-140.9"/>
<polygon fill="black" stroke="black" points="178.22,-140.9 181.72,-150.9 185.22,-140.9 178.22,-140.9"/>
</g>
</g>
</svg>
