<?xml version="1.0" encoding="UTF-8" standalone="no"?>
<!DOCTYPE svg PUBLIC "-//W3C//DTD SVG 1.1//EN"
 "http://www.w3.org/Graphics/SVG/1.1/DTD/svg11.dtd">
<!-- Generated by graphviz version 2.47.0 (20210316.0004)
 -->
<!-- Title: dependencies Pages: 1 -->
<svg width="504pt" height="284pt"
 viewBox="0.00 0.00 504.00 284.00" xmlns="http://www.w3.org/2000/svg" xmlns:xlink="http://www.w3.org/1999/xlink">
<g id="graph0" class="graph" transform="scale(1 1) rotate(0) translate(4 280)">
<title>dependencies</title>
<polygon fill="white" stroke="transparent" points="-4,4 -4,-280 500,-280 500,4 -4,4"/>
<text text-anchor="start" x="227.01" y="-42.4" font-family="Times-12" font-weight="bold" font-size="14.00">Legend</text>
<polygon fill="#ffffb3" stroke="transparent" points="14,-10 14,-30 34,-30 34,-10 14,-10"/>
<text text-anchor="start" x="37.63" y="-15.4" font-family="Times-12" font-size="14.00"> &#160;Declarations</text>
<polygon fill="#8dd3c7" stroke="transparent" points="127,-10 127,-30 147,-30 147,-10 127,-10"/>
<text text-anchor="start" x="150.73" y="-15.4" font-family="Times-12" font-size="14.00"> &#160;Module</text>
<polygon fill="#80b1d3" stroke="transparent" points="213,-10 213,-30 233,-30 233,-10 213,-10"/>
<text text-anchor="start" x="236.78" y="-15.4" font-family="Times-12" font-size="14.00"> &#160;Bootstrap</text>
<polygon fill="#fdb462" stroke="transparent" points="310,-10 310,-30 330,-30 330,-10 310,-10"/>
<text text-anchor="start" x="333.67" y="-15.4" font-family="Times-12" font-size="14.00"> &#160;Providers</text>
<polygon fill="#fb8072" stroke="transparent" points="406,-10 406,-30 426,-30 426,-10 406,-10"/>
<text text-anchor="start" x="429.73" y="-15.4" font-family="Times-12" font-size="14.00"> &#160;Exports</text>
<g id="clust1" class="cluster">
<title>cluster_RoleModule</title>
<polygon fill="none" stroke="black" stroke-dasharray="1,5" points="93,-70 93,-268 403,-268 403,-70 93,-70"/>
</g>
<g id="clust4" class="cluster">
<title>cluster_RoleModule_exports</title>
<polygon fill="none" stroke="black" points="121,-208 121,-260 351,-260 351,-208 121,-208"/>
</g>
<g id="clust6" class="cluster">
<title>cluster_RoleModule_providers</title>
<polygon fill="none" stroke="black" points="101,-78 101,-130 395,-130 395,-78 101,-78"/>
</g>
<!-- RoleRepository  -->
<g id="node1" class="node">
<title>RoleRepository </title>
<polygon fill="#fb8072" stroke="black" points="342.88,-252 235.12,-252 235.12,-216 342.88,-216 342.88,-252"/>
<text text-anchor="middle" x="289" y="-229.8" font-family="Times,serif" font-size="14.00">RoleRepository </text>
</g>
<!-- RoleService  -->
<g id="node2" class="node">
<title>RoleService </title>
<polygon fill="#fb8072" stroke="black" points="216.92,-252 129.08,-252 129.08,-216 216.92,-216 216.92,-252"/>
<text text-anchor="middle" x="173" y="-229.8" font-family="Times,serif" font-size="14.00">RoleService </text>
</g>
<!-- RoleModule -->
<g id="node3" class="node">
<title>RoleModule</title>
<polygon fill="#8dd3c7" stroke="black" points="234.99,-187 231.99,-191 210.99,-191 207.99,-187 149.01,-187 149.01,-151 234.99,-151 234.99,-187"/>
<text text-anchor="middle" x="192" y="-164.8" font-family="Times,serif" font-size="14.00">RoleModule</text>
</g>
<!-- RoleModule&#45;&gt;RoleRepository  -->
<g id="edge1" class="edge">
<title>RoleModule&#45;&gt;RoleRepository </title>
<path fill="none" stroke="black" stroke-dasharray="5,2" d="M235.29,-169C237.8,-169 239.33,-169 239.33,-169 239.33,-169 239.33,-205.89 239.33,-205.89"/>
<polygon fill="black" stroke="black" points="235.83,-205.89 239.33,-215.89 242.83,-205.89 235.83,-205.89"/>
</g>
<!-- RoleModule&#45;&gt;RoleService  -->
<g id="edge2" class="edge">
<title>RoleModule&#45;&gt;RoleService </title>
<path fill="none" stroke="black" stroke-dasharray="5,2" d="M182.98,-187.11C182.98,-187.11 182.98,-205.99 182.98,-205.99"/>
<polygon fill="black" stroke="black" points="179.48,-205.99 182.98,-215.99 186.48,-205.99 179.48,-205.99"/>
</g>
<!-- RoleRepository -->
<g id="node4" class="node">
<title>RoleRepository</title>
<ellipse fill="#fdb462" stroke="black" cx="315" cy="-104" rx="71.81" ry="18"/>
<text text-anchor="middle" x="315" y="-99.8" font-family="Times,serif" font-size="14.00">RoleRepository</text>
</g>
<!-- RoleRepository&#45;&gt;RoleModule -->
<g id="edge3" class="edge">
<title>RoleRepository&#45;&gt;RoleModule</title>
<path fill="none" stroke="black" d="M243.01,-104C235.25,-104 230.11,-104 230.11,-104 230.11,-104 230.11,-140.89 230.11,-140.89"/>
<polygon fill="black" stroke="black" points="226.61,-140.89 230.11,-150.89 233.61,-140.89 226.61,-140.89"/>
</g>
<!-- RoleService -->
<g id="node5" class="node">
<title>RoleService</title>
<ellipse fill="#fdb462" stroke="black" cx="167" cy="-104" rx="58.46" ry="18"/>
<text text-anchor="middle" x="167" y="-99.8" font-family="Times,serif" font-size="14.00">RoleService</text>
</g>
<!-- RoleService&#45;&gt;RoleModule -->
<g id="edge4" class="edge">
<title>RoleService&#45;&gt;RoleModule</title>
<path fill="none" stroke="black" d="M187.12,-121.08C187.12,-121.08 187.12,-140.9 187.12,-140.9"/>
<polygon fill="black" stroke="black" points="183.62,-140.9 187.12,-150.9 190.62,-140.9 183.62,-140.9"/>
</g>
</g>
</svg>
