<?xml version="1.0" encoding="UTF-8" standalone="no"?>
<!DOCTYPE svg PUBLIC "-//W3C//DTD SVG 1.1//EN"
 "http://www.w3.org/Graphics/SVG/1.1/DTD/svg11.dtd">
<!-- Generated by graphviz version 2.47.0 (20210316.0004)
 -->
<!-- Title: dependencies Pages: 1 -->
<svg width="504pt" height="284pt"
 viewBox="0.00 0.00 504.00 284.00" xmlns="http://www.w3.org/2000/svg" xmlns:xlink="http://www.w3.org/1999/xlink">
<g id="graph0" class="graph" transform="scale(1 1) rotate(0) translate(4 280)">
<title>dependencies</title>
<polygon fill="white" stroke="transparent" points="-4,4 -4,-280 500,-280 500,4 -4,4"/>
<text text-anchor="start" x="227.01" y="-42.4" font-family="Times-12" font-weight="bold" font-size="14.00">Legend</text>
<polygon fill="#ffffb3" stroke="transparent" points="14,-10 14,-30 34,-30 34,-10 14,-10"/>
<text text-anchor="start" x="37.63" y="-15.4" font-family="Times-12" font-size="14.00"> &#160;Declarations</text>
<polygon fill="#8dd3c7" stroke="transparent" points="127,-10 127,-30 147,-30 147,-10 127,-10"/>
<text text-anchor="start" x="150.73" y="-15.4" font-family="Times-12" font-size="14.00"> &#160;Module</text>
<polygon fill="#80b1d3" stroke="transparent" points="213,-10 213,-30 233,-30 233,-10 213,-10"/>
<text text-anchor="start" x="236.78" y="-15.4" font-family="Times-12" font-size="14.00"> &#160;Bootstrap</text>
<polygon fill="#fdb462" stroke="transparent" points="310,-10 310,-30 330,-30 330,-10 310,-10"/>
<text text-anchor="start" x="333.67" y="-15.4" font-family="Times-12" font-size="14.00"> &#160;Providers</text>
<polygon fill="#fb8072" stroke="transparent" points="406,-10 406,-30 426,-30 426,-10 406,-10"/>
<text text-anchor="start" x="429.73" y="-15.4" font-family="Times-12" font-size="14.00"> &#160;Exports</text>
<g id="clust1" class="cluster">
<title>cluster_CoreModule</title>
<polygon fill="none" stroke="black" stroke-dasharray="1,5" points="98.5,-70 98.5,-268 397.5,-268 397.5,-70 98.5,-70"/>
</g>
<g id="clust4" class="cluster">
<title>cluster_CoreModule_exports</title>
<polygon fill="none" stroke="black" points="106.5,-208 106.5,-260 389.5,-260 389.5,-208 106.5,-208"/>
</g>
<g id="clust3" class="cluster">
<title>cluster_CoreModule_imports</title>
<polygon fill="none" stroke="black" points="110.5,-78 110.5,-130 386.5,-130 386.5,-78 110.5,-78"/>
</g>
<!-- InfrastructureModule -->
<g id="node1" class="node">
<title>InfrastructureModule</title>
<polygon fill="#8dd3c7" stroke="black" points="378.22,-122 375.22,-126 354.22,-126 351.22,-122 242.78,-122 242.78,-86 378.22,-86 378.22,-122"/>
<text text-anchor="middle" x="310.5" y="-99.8" font-family="Times,serif" font-size="14.00">InfrastructureModule</text>
</g>
<!-- CoreModule -->
<g id="node3" class="node">
<title>CoreModule</title>
<polygon fill="#8dd3c7" stroke="black" points="215.76,-187 212.76,-191 191.76,-191 188.76,-187 129.24,-187 129.24,-151 215.76,-151 215.76,-187"/>
<text text-anchor="middle" x="172.5" y="-164.8" font-family="Times,serif" font-size="14.00">CoreModule</text>
</g>
<!-- InfrastructureModule&#45;&gt;CoreModule -->
<g id="edge1" class="edge">
<title>InfrastructureModule&#45;&gt;CoreModule</title>
<path fill="none" stroke="black" d="M333.12,-122.02C333.12,-139.37 333.12,-163 333.12,-163 333.12,-163 225.97,-163 225.97,-163"/>
<polygon fill="black" stroke="black" points="225.97,-159.5 215.97,-163 225.97,-166.5 225.97,-159.5"/>
</g>
<!-- SecurityModule -->
<g id="node2" class="node">
<title>SecurityModule</title>
<polygon fill="#8dd3c7" stroke="black" points="224.7,-122 221.7,-126 200.7,-126 197.7,-122 118.3,-122 118.3,-86 224.7,-86 224.7,-122"/>
<text text-anchor="middle" x="171.5" y="-99.8" font-family="Times,serif" font-size="14.00">SecurityModule</text>
</g>
<!-- SecurityModule&#45;&gt;CoreModule -->
<g id="edge2" class="edge">
<title>SecurityModule&#45;&gt;CoreModule</title>
<path fill="none" stroke="black" d="M172.5,-122.11C172.5,-122.11 172.5,-140.99 172.5,-140.99"/>
<polygon fill="black" stroke="black" points="169,-140.99 172.5,-150.99 176,-140.99 169,-140.99"/>
</g>
<!-- InfrastructureModule  -->
<g id="node4" class="node">
<title>InfrastructureModule </title>
<polygon fill="#fb8072" stroke="black" points="381.22,-252 241.78,-252 241.78,-216 381.22,-216 381.22,-252"/>
<text text-anchor="middle" x="311.5" y="-229.8" font-family="Times,serif" font-size="14.00">InfrastructureModule </text>
</g>
<!-- CoreModule&#45;&gt;InfrastructureModule  -->
<g id="edge3" class="edge">
<title>CoreModule&#45;&gt;InfrastructureModule </title>
<path fill="none" stroke="black" stroke-dasharray="5,2" d="M215.79,-175C248.53,-175 287.88,-175 287.88,-175 287.88,-175 287.88,-205.98 287.88,-205.98"/>
<polygon fill="black" stroke="black" points="284.38,-205.98 287.88,-215.98 291.38,-205.98 284.38,-205.98"/>
</g>
<!-- SecurityModule  -->
<g id="node5" class="node">
<title>SecurityModule </title>
<polygon fill="#fb8072" stroke="black" points="224.2,-252 114.8,-252 114.8,-216 224.2,-216 224.2,-252"/>
<text text-anchor="middle" x="169.5" y="-229.8" font-family="Times,serif" font-size="14.00">SecurityModule </text>
</g>
<!-- CoreModule&#45;&gt;SecurityModule  -->
<g id="edge4" class="edge">
<title>CoreModule&#45;&gt;SecurityModule </title>
<path fill="none" stroke="black" stroke-dasharray="5,2" d="M172.5,-187.11C172.5,-187.11 172.5,-205.99 172.5,-205.99"/>
<polygon fill="black" stroke="black" points="169,-205.99 172.5,-215.99 176,-205.99 169,-205.99"/>
</g>
</g>
</svg>
