<?xml version="1.0" encoding="UTF-8" standalone="no"?>
<!DOCTYPE svg PUBLIC "-//W3C//DTD SVG 1.1//EN"
 "http://www.w3.org/Graphics/SVG/1.1/DTD/svg11.dtd">
<!-- Generated by graphviz version 2.47.0 (20210316.0004)
 -->
<!-- Title: dependencies Pages: 1 -->
<svg width="504pt" height="284pt"
 viewBox="0.00 0.00 504.00 284.00" xmlns="http://www.w3.org/2000/svg" xmlns:xlink="http://www.w3.org/1999/xlink">
<g id="graph0" class="graph" transform="scale(1 1) rotate(0) translate(4 280)">
<title>dependencies</title>
<polygon fill="white" stroke="transparent" points="-4,4 -4,-280 500,-280 500,4 -4,4"/>
<text text-anchor="start" x="227.01" y="-42.4" font-family="Times-12" font-weight="bold" font-size="14.00">Legend</text>
<polygon fill="#ffffb3" stroke="transparent" points="14,-10 14,-30 34,-30 34,-10 14,-10"/>
<text text-anchor="start" x="37.63" y="-15.4" font-family="Times-12" font-size="14.00"> &#160;Declarations</text>
<polygon fill="#8dd3c7" stroke="transparent" points="127,-10 127,-30 147,-30 147,-10 127,-10"/>
<text text-anchor="start" x="150.73" y="-15.4" font-family="Times-12" font-size="14.00"> &#160;Module</text>
<polygon fill="#80b1d3" stroke="transparent" points="213,-10 213,-30 233,-30 233,-10 213,-10"/>
<text text-anchor="start" x="236.78" y="-15.4" font-family="Times-12" font-size="14.00"> &#160;Bootstrap</text>
<polygon fill="#fdb462" stroke="transparent" points="310,-10 310,-30 330,-30 330,-10 310,-10"/>
<text text-anchor="start" x="333.67" y="-15.4" font-family="Times-12" font-size="14.00"> &#160;Providers</text>
<polygon fill="#fb8072" stroke="transparent" points="406,-10 406,-30 426,-30 426,-10 406,-10"/>
<text text-anchor="start" x="429.73" y="-15.4" font-family="Times-12" font-size="14.00"> &#160;Exports</text>
<g id="clust1" class="cluster">
<title>cluster_ContactModule</title>
<polygon fill="none" stroke="black" stroke-dasharray="1,5" points="70,-70 70,-268 426,-268 426,-70 70,-70"/>
</g>
<g id="clust6" class="cluster">
<title>cluster_ContactModule_providers</title>
<polygon fill="none" stroke="black" points="78,-78 78,-130 418,-130 418,-78 78,-78"/>
</g>
<g id="clust4" class="cluster">
<title>cluster_ContactModule_exports</title>
<polygon fill="none" stroke="black" points="101,-208 101,-260 365,-260 365,-208 101,-208"/>
</g>
<!-- ContactRepository  -->
<g id="node1" class="node">
<title>ContactRepository </title>
<polygon fill="#fb8072" stroke="black" points="357.49,-252 232.51,-252 232.51,-216 357.49,-216 357.49,-252"/>
<text text-anchor="middle" x="295" y="-229.8" font-family="Times,serif" font-size="14.00">ContactRepository </text>
</g>
<!-- ContactService  -->
<g id="node2" class="node">
<title>ContactService </title>
<polygon fill="#fb8072" stroke="black" points="214.52,-252 109.48,-252 109.48,-216 214.52,-216 214.52,-252"/>
<text text-anchor="middle" x="162" y="-229.8" font-family="Times,serif" font-size="14.00">ContactService </text>
</g>
<!-- ContactModule -->
<g id="node3" class="node">
<title>ContactModule</title>
<polygon fill="#8dd3c7" stroke="black" points="236.6,-187 233.6,-191 212.6,-191 209.6,-187 133.4,-187 133.4,-151 236.6,-151 236.6,-187"/>
<text text-anchor="middle" x="185" y="-164.8" font-family="Times,serif" font-size="14.00">ContactModule</text>
</g>
<!-- ContactModule&#45;&gt;ContactRepository  -->
<g id="edge1" class="edge">
<title>ContactModule&#45;&gt;ContactRepository </title>
<path fill="none" stroke="black" stroke-dasharray="5,2" d="M223.63,-187.11C223.63,-206.34 223.63,-234 223.63,-234 223.63,-234 224.54,-234 224.54,-234"/>
<polygon fill="black" stroke="black" points="222.67,-237.5 232.67,-234 222.67,-230.5 222.67,-237.5"/>
</g>
<!-- ContactModule&#45;&gt;ContactService  -->
<g id="edge2" class="edge">
<title>ContactModule&#45;&gt;ContactService </title>
<path fill="none" stroke="black" stroke-dasharray="5,2" d="M173.98,-187.11C173.98,-187.11 173.98,-205.99 173.98,-205.99"/>
<polygon fill="black" stroke="black" points="170.48,-205.99 173.98,-215.99 177.48,-205.99 170.48,-205.99"/>
</g>
<!-- ContactRepository -->
<g id="node4" class="node">
<title>ContactRepository</title>
<ellipse fill="#fdb462" stroke="black" cx="327" cy="-104" rx="83.41" ry="18"/>
<text text-anchor="middle" x="327" y="-99.8" font-family="Times,serif" font-size="14.00">ContactRepository</text>
</g>
<!-- ContactRepository&#45;&gt;ContactModule -->
<g id="edge3" class="edge">
<title>ContactRepository&#45;&gt;ContactModule</title>
<path fill="none" stroke="black" d="M243.41,-104C236.03,-104 231.29,-104 231.29,-104 231.29,-104 231.29,-140.89 231.29,-140.89"/>
<polygon fill="black" stroke="black" points="227.79,-140.89 231.29,-150.89 234.79,-140.89 227.79,-140.89"/>
</g>
<!-- ContactService -->
<g id="node5" class="node">
<title>ContactService</title>
<ellipse fill="#fdb462" stroke="black" cx="156" cy="-104" rx="70.06" ry="18"/>
<text text-anchor="middle" x="156" y="-99.8" font-family="Times,serif" font-size="14.00">ContactService</text>
</g>
<!-- ContactService&#45;&gt;ContactModule -->
<g id="edge4" class="edge">
<title>ContactService&#45;&gt;ContactModule</title>
<path fill="none" stroke="black" d="M179.74,-121.08C179.74,-121.08 179.74,-140.9 179.74,-140.9"/>
<polygon fill="black" stroke="black" points="176.24,-140.9 179.74,-150.9 183.24,-140.9 176.24,-140.9"/>
</g>
</g>
</svg>
