<?xml version="1.0" encoding="UTF-8" standalone="no"?>
<!DOCTYPE svg PUBLIC "-//W3C//DTD SVG 1.1//EN"
 "http://www.w3.org/Graphics/SVG/1.1/DTD/svg11.dtd">
<!-- Generated by graphviz version 2.47.0 (20210316.0004)
 -->
<!-- Title: dependencies Pages: 1 -->
<svg width="953pt" height="211pt"
 viewBox="0.00 0.00 953.00 211.00" xmlns="http://www.w3.org/2000/svg" xmlns:xlink="http://www.w3.org/1999/xlink">
<g id="graph0" class="graph" transform="scale(1 1) rotate(0) translate(4 207)">
<title>dependencies</title>
<polygon fill="white" stroke="transparent" points="-4,4 -4,-207 949,-207 949,4 -4,4"/>
<text text-anchor="start" x="451.51" y="-42.4" font-family="Times-12" font-weight="bold" font-size="14.00">Legend</text>
<polygon fill="#ffffb3" stroke="transparent" points="238.5,-10 238.5,-30 258.5,-30 258.5,-10 238.5,-10"/>
<text text-anchor="start" x="262.13" y="-15.4" font-family="Times-12" font-size="14.00"> &#160;Declarations</text>
<polygon fill="#8dd3c7" stroke="transparent" points="351.5,-10 351.5,-30 371.5,-30 371.5,-10 351.5,-10"/>
<text text-anchor="start" x="375.23" y="-15.4" font-family="Times-12" font-size="14.00"> &#160;Module</text>
<polygon fill="#80b1d3" stroke="transparent" points="437.5,-10 437.5,-30 457.5,-30 457.5,-10 437.5,-10"/>
<text text-anchor="start" x="461.28" y="-15.4" font-family="Times-12" font-size="14.00"> &#160;Bootstrap</text>
<polygon fill="#fdb462" stroke="transparent" points="534.5,-10 534.5,-30 554.5,-30 554.5,-10 534.5,-10"/>
<text text-anchor="start" x="558.17" y="-15.4" font-family="Times-12" font-size="14.00"> &#160;Providers</text>
<polygon fill="#fb8072" stroke="transparent" points="630.5,-10 630.5,-30 650.5,-30 650.5,-10 630.5,-10"/>
<text text-anchor="start" x="654.23" y="-15.4" font-family="Times-12" font-size="14.00"> &#160;Exports</text>
<g id="clust1" class="cluster">
<title>cluster_AppModule</title>
<polygon fill="none" stroke="black" stroke-dasharray="1,5" points="8,-70 8,-195 937,-195 937,-70 8,-70"/>
</g>
<g id="clust3" class="cluster">
<title>cluster_AppModule_imports</title>
<polygon fill="none" stroke="black" points="16,-78 16,-130 929,-130 929,-78 16,-78"/>
</g>
<!-- AuthModule -->
<g id="node1" class="node">
<title>AuthModule</title>
<polygon fill="#8dd3c7" stroke="black" points="920.55,-122 917.55,-126 896.55,-126 893.55,-122 833.45,-122 833.45,-86 920.55,-86 920.55,-122"/>
<text text-anchor="middle" x="877" y="-99.8" font-family="Times,serif" font-size="14.00">AuthModule</text>
</g>
<!-- AppModule -->
<g id="node9" class="node">
<title>AppModule</title>
<polygon fill="#8dd3c7" stroke="black" points="506.66,-187 503.66,-191 482.66,-191 479.66,-187 423.34,-187 423.34,-151 506.66,-151 506.66,-187"/>
<text text-anchor="middle" x="465" y="-164.8" font-family="Times,serif" font-size="14.00">AppModule</text>
</g>
<!-- AuthModule&#45;&gt;AppModule -->
<g id="edge1" class="edge">
<title>AuthModule&#45;&gt;AppModule</title>
<path fill="none" stroke="black" d="M877,-122.29C877,-144.21 877,-178 877,-178 877,-178 516.77,-178 516.77,-178"/>
<polygon fill="black" stroke="black" points="516.77,-174.5 506.77,-178 516.77,-181.5 516.77,-174.5"/>
</g>
<!-- ContactModule -->
<g id="node2" class="node">
<title>ContactModule</title>
<polygon fill="#8dd3c7" stroke="black" points="815.6,-122 812.6,-126 791.6,-126 788.6,-122 712.4,-122 712.4,-86 815.6,-86 815.6,-122"/>
<text text-anchor="middle" x="764" y="-99.8" font-family="Times,serif" font-size="14.00">ContactModule</text>
</g>
<!-- ContactModule&#45;&gt;AppModule -->
<g id="edge2" class="edge">
<title>ContactModule&#45;&gt;AppModule</title>
<path fill="none" stroke="black" d="M764,-122.11C764,-141.34 764,-169 764,-169 764,-169 516.89,-169 516.89,-169"/>
<polygon fill="black" stroke="black" points="516.89,-165.5 506.89,-169 516.89,-172.5 516.89,-165.5"/>
</g>
<!-- CoreModule -->
<g id="node3" class="node">
<title>CoreModule</title>
<polygon fill="#8dd3c7" stroke="black" points="694.26,-122 691.26,-126 670.26,-126 667.26,-122 607.74,-122 607.74,-86 694.26,-86 694.26,-122"/>
<text text-anchor="middle" x="651" y="-99.8" font-family="Times,serif" font-size="14.00">CoreModule</text>
</g>
<!-- CoreModule&#45;&gt;AppModule -->
<g id="edge3" class="edge">
<title>CoreModule&#45;&gt;AppModule</title>
<path fill="none" stroke="black" d="M651,-122.03C651,-138.4 651,-160 651,-160 651,-160 516.74,-160 516.74,-160"/>
<polygon fill="black" stroke="black" points="516.74,-156.5 506.74,-160 516.74,-163.5 516.74,-156.5"/>
</g>
<!-- PermissionModule -->
<g id="node4" class="node">
<title>PermissionModule</title>
<polygon fill="#8dd3c7" stroke="black" points="589.77,-122 586.77,-126 565.77,-126 562.77,-122 468.23,-122 468.23,-86 589.77,-86 589.77,-122"/>
<text text-anchor="middle" x="529" y="-99.8" font-family="Times,serif" font-size="14.00">PermissionModule</text>
</g>
<!-- PermissionModule&#45;&gt;AppModule -->
<g id="edge4" class="edge">
<title>PermissionModule&#45;&gt;AppModule</title>
<path fill="none" stroke="black" d="M487.47,-122.11C487.47,-122.11 487.47,-140.99 487.47,-140.99"/>
<polygon fill="black" stroke="black" points="483.97,-140.99 487.47,-150.99 490.97,-140.99 483.97,-140.99"/>
</g>
<!-- ProfileModule -->
<g id="node5" class="node">
<title>ProfileModule</title>
<polygon fill="#8dd3c7" stroke="black" points="449.65,-122 446.65,-126 425.65,-126 422.65,-122 352.35,-122 352.35,-86 449.65,-86 449.65,-122"/>
<text text-anchor="middle" x="401" y="-99.8" font-family="Times,serif" font-size="14.00">ProfileModule</text>
</g>
<!-- ProfileModule&#45;&gt;AppModule -->
<g id="edge5" class="edge">
<title>ProfileModule&#45;&gt;AppModule</title>
<path fill="none" stroke="black" d="M436.5,-122.11C436.5,-122.11 436.5,-140.99 436.5,-140.99"/>
<polygon fill="black" stroke="black" points="433,-140.99 436.5,-150.99 440,-140.99 433,-140.99"/>
</g>
<!-- RoleModule -->
<g id="node6" class="node">
<title>RoleModule</title>
<polygon fill="#8dd3c7" stroke="black" points="333.99,-122 330.99,-126 309.99,-126 306.99,-122 248.01,-122 248.01,-86 333.99,-86 333.99,-122"/>
<text text-anchor="middle" x="291" y="-99.8" font-family="Times,serif" font-size="14.00">RoleModule</text>
</g>
<!-- RoleModule&#45;&gt;AppModule -->
<g id="edge6" class="edge">
<title>RoleModule&#45;&gt;AppModule</title>
<path fill="none" stroke="black" d="M291,-122.03C291,-138.4 291,-160 291,-160 291,-160 413.32,-160 413.32,-160"/>
<polygon fill="black" stroke="black" points="413.32,-163.5 423.32,-160 413.32,-156.5 413.32,-163.5"/>
</g>
<!-- SessionModule -->
<g id="node7" class="node">
<title>SessionModule</title>
<polygon fill="#8dd3c7" stroke="black" points="230.33,-122 227.33,-126 206.33,-126 203.33,-122 127.67,-122 127.67,-86 230.33,-86 230.33,-122"/>
<text text-anchor="middle" x="179" y="-99.8" font-family="Times,serif" font-size="14.00">SessionModule</text>
</g>
<!-- SessionModule&#45;&gt;AppModule -->
<g id="edge7" class="edge">
<title>SessionModule&#45;&gt;AppModule</title>
<path fill="none" stroke="black" d="M179,-122.11C179,-141.34 179,-169 179,-169 179,-169 413.11,-169 413.11,-169"/>
<polygon fill="black" stroke="black" points="413.11,-172.5 423.11,-169 413.11,-165.5 413.11,-172.5"/>
</g>
<!-- UserModule -->
<g id="node8" class="node">
<title>UserModule</title>
<polygon fill="#8dd3c7" stroke="black" points="109.98,-122 106.98,-126 85.98,-126 82.98,-122 24.02,-122 24.02,-86 109.98,-86 109.98,-122"/>
<text text-anchor="middle" x="67" y="-99.8" font-family="Times,serif" font-size="14.00">UserModule</text>
</g>
<!-- UserModule&#45;&gt;AppModule -->
<g id="edge8" class="edge">
<title>UserModule&#45;&gt;AppModule</title>
<path fill="none" stroke="black" d="M67,-122.29C67,-144.21 67,-178 67,-178 67,-178 413.16,-178 413.16,-178"/>
<polygon fill="black" stroke="black" points="413.16,-181.5 423.16,-178 413.16,-174.5 413.16,-181.5"/>
</g>
</g>
</svg>
