<?xml version="1.0" encoding="UTF-8" standalone="no"?>
<!DOCTYPE svg PUBLIC "-//W3C//DTD SVG 1.1//EN"
 "http://www.w3.org/Graphics/SVG/1.1/DTD/svg11.dtd">
<!-- Generated by graphviz version 2.47.0 (20210316.0004)
 -->
<!-- Title: dependencies Pages: 1 -->
<svg width="504pt" height="284pt"
 viewBox="0.00 0.00 504.00 284.00" xmlns="http://www.w3.org/2000/svg" xmlns:xlink="http://www.w3.org/1999/xlink">
<g id="graph0" class="graph" transform="scale(1 1) rotate(0) translate(4 280)">
<title>dependencies</title>
<polygon fill="white" stroke="transparent" points="-4,4 -4,-280 500,-280 500,4 -4,4"/>
<text text-anchor="start" x="227.01" y="-42.4" font-family="Times-12" font-weight="bold" font-size="14.00">Legend</text>
<polygon fill="#ffffb3" stroke="transparent" points="14,-10 14,-30 34,-30 34,-10 14,-10"/>
<text text-anchor="start" x="37.63" y="-15.4" font-family="Times-12" font-size="14.00"> &#160;Declarations</text>
<polygon fill="#8dd3c7" stroke="transparent" points="127,-10 127,-30 147,-30 147,-10 127,-10"/>
<text text-anchor="start" x="150.73" y="-15.4" font-family="Times-12" font-size="14.00"> &#160;Module</text>
<polygon fill="#80b1d3" stroke="transparent" points="213,-10 213,-30 233,-30 233,-10 213,-10"/>
<text text-anchor="start" x="236.78" y="-15.4" font-family="Times-12" font-size="14.00"> &#160;Bootstrap</text>
<polygon fill="#fdb462" stroke="transparent" points="310,-10 310,-30 330,-30 330,-10 310,-10"/>
<text text-anchor="start" x="333.67" y="-15.4" font-family="Times-12" font-size="14.00"> &#160;Providers</text>
<polygon fill="#fb8072" stroke="transparent" points="406,-10 406,-30 426,-30 426,-10 406,-10"/>
<text text-anchor="start" x="429.73" y="-15.4" font-family="Times-12" font-size="14.00"> &#160;Exports</text>
<g id="clust1" class="cluster">
<title>cluster_GreetingModule</title>
<polygon fill="none" stroke="black" stroke-dasharray="1,5" points="92,-70 92,-268 404,-268 404,-70 92,-70"/>
</g>
<g id="clust6" class="cluster">
<title>cluster_GreetingModule_providers</title>
<polygon fill="none" stroke="black" points="167,-78 167,-130 331,-130 331,-78 167,-78"/>
</g>
<g id="clust4" class="cluster">
<title>cluster_GreetingModule_exports</title>
<polygon fill="none" stroke="black" points="100,-208 100,-260 396,-260 396,-208 100,-208"/>
</g>
<!-- GreetingService  -->
<g id="node1" class="node">
<title>GreetingService </title>
<polygon fill="#fb8072" stroke="black" points="388.46,-252 277.54,-252 277.54,-216 388.46,-216 388.46,-252"/>
<text text-anchor="middle" x="333" y="-229.8" font-family="Times,serif" font-size="14.00">GreetingService </text>
</g>
<!-- GreetingsEventListener  -->
<g id="node2" class="node">
<title>GreetingsEventListener </title>
<polygon fill="#fb8072" stroke="black" points="260.45,-252 107.55,-252 107.55,-216 260.45,-216 260.45,-252"/>
<text text-anchor="middle" x="184" y="-229.8" font-family="Times,serif" font-size="14.00">GreetingsEventListener </text>
</g>
<!-- GreetingModule -->
<g id="node3" class="node">
<title>GreetingModule</title>
<polygon fill="#8dd3c7" stroke="black" points="303.03,-187 300.03,-191 279.03,-191 276.03,-187 194.97,-187 194.97,-151 303.03,-151 303.03,-187"/>
<text text-anchor="middle" x="249" y="-164.8" font-family="Times,serif" font-size="14.00">GreetingModule</text>
</g>
<!-- GreetingModule&#45;&gt;GreetingService  -->
<g id="edge1" class="edge">
<title>GreetingModule&#45;&gt;GreetingService </title>
<path fill="none" stroke="black" stroke-dasharray="5,2" d="M290.52,-187.11C290.52,-187.11 290.52,-205.99 290.52,-205.99"/>
<polygon fill="black" stroke="black" points="287.02,-205.99 290.52,-215.99 294.02,-205.99 287.02,-205.99"/>
</g>
<!-- GreetingModule&#45;&gt;GreetingsEventListener  -->
<g id="edge2" class="edge">
<title>GreetingModule&#45;&gt;GreetingsEventListener </title>
<path fill="none" stroke="black" stroke-dasharray="5,2" d="M227.48,-187.11C227.48,-187.11 227.48,-205.99 227.48,-205.99"/>
<polygon fill="black" stroke="black" points="223.98,-205.99 227.48,-215.99 230.98,-205.99 223.98,-205.99"/>
</g>
<!-- GreetingService -->
<g id="node4" class="node">
<title>GreetingService</title>
<ellipse fill="#fdb462" stroke="black" cx="249" cy="-104" rx="73.55" ry="18"/>
<text text-anchor="middle" x="249" y="-99.8" font-family="Times,serif" font-size="14.00">GreetingService</text>
</g>
<!-- GreetingService&#45;&gt;GreetingModule -->
<g id="edge3" class="edge">
<title>GreetingService&#45;&gt;GreetingModule</title>
<path fill="none" stroke="black" d="M249,-122.11C249,-122.11 249,-140.99 249,-140.99"/>
<polygon fill="black" stroke="black" points="245.5,-140.99 249,-150.99 252.5,-140.99 245.5,-140.99"/>
</g>
</g>
</svg>
