<?xml version="1.0" encoding="UTF-8" standalone="no"?>
<!DOCTYPE svg PUBLIC "-//W3C//DTD SVG 1.1//EN"
 "http://www.w3.org/Graphics/SVG/1.1/DTD/svg11.dtd">
<!-- Generated by graphviz version 2.47.0 (20210316.0004)
 -->
<!-- Title: dependencies Pages: 1 -->
<svg width="567pt" height="284pt"
 viewBox="0.00 0.00 567.00 284.00" xmlns="http://www.w3.org/2000/svg" xmlns:xlink="http://www.w3.org/1999/xlink">
<g id="graph0" class="graph" transform="scale(1 1) rotate(0) translate(4 280)">
<title>dependencies</title>
<polygon fill="white" stroke="transparent" points="-4,4 -4,-280 563,-280 563,4 -4,4"/>
<text text-anchor="start" x="258.51" y="-42.4" font-family="Times-12" font-weight="bold" font-size="14.00">Legend</text>
<polygon fill="#ffffb3" stroke="transparent" points="45.5,-10 45.5,-30 65.5,-30 65.5,-10 45.5,-10"/>
<text text-anchor="start" x="69.13" y="-15.4" font-family="Times-12" font-size="14.00"> &#160;Declarations</text>
<polygon fill="#8dd3c7" stroke="transparent" points="158.5,-10 158.5,-30 178.5,-30 178.5,-10 158.5,-10"/>
<text text-anchor="start" x="182.23" y="-15.4" font-family="Times-12" font-size="14.00"> &#160;Module</text>
<polygon fill="#80b1d3" stroke="transparent" points="244.5,-10 244.5,-30 264.5,-30 264.5,-10 244.5,-10"/>
<text text-anchor="start" x="268.28" y="-15.4" font-family="Times-12" font-size="14.00"> &#160;Bootstrap</text>
<polygon fill="#fdb462" stroke="transparent" points="341.5,-10 341.5,-30 361.5,-30 361.5,-10 341.5,-10"/>
<text text-anchor="start" x="365.17" y="-15.4" font-family="Times-12" font-size="14.00"> &#160;Providers</text>
<polygon fill="#fb8072" stroke="transparent" points="437.5,-10 437.5,-30 457.5,-30 457.5,-10 437.5,-10"/>
<text text-anchor="start" x="461.23" y="-15.4" font-family="Times-12" font-size="14.00"> &#160;Exports</text>
<g id="clust1" class="cluster">
<title>cluster_SecurityModule</title>
<polygon fill="none" stroke="black" stroke-dasharray="1,5" points="8,-70 8,-268 551,-268 551,-70 8,-70"/>
</g>
<g id="clust4" class="cluster">
<title>cluster_SecurityModule_exports</title>
<polygon fill="none" stroke="black" points="16,-208 16,-260 543,-260 543,-208 16,-208"/>
</g>
<g id="clust3" class="cluster">
<title>cluster_SecurityModule_imports</title>
<polygon fill="none" stroke="black" points="23,-78 23,-130 537,-130 537,-78 23,-78"/>
</g>
<!-- AccessControlModule -->
<g id="node1" class="node">
<title>AccessControlModule</title>
<polygon fill="#8dd3c7" stroke="black" points="528.97,-122 525.97,-126 504.97,-126 501.97,-122 387.03,-122 387.03,-86 528.97,-86 528.97,-122"/>
<text text-anchor="middle" x="458" y="-99.8" font-family="Times,serif" font-size="14.00">AccessControlModule</text>
</g>
<!-- SecurityModule -->
<g id="node5" class="node">
<title>SecurityModule</title>
<polygon fill="#8dd3c7" stroke="black" points="253.2,-187 250.2,-191 229.2,-191 226.2,-187 146.8,-187 146.8,-151 253.2,-151 253.2,-187"/>
<text text-anchor="middle" x="200" y="-164.8" font-family="Times,serif" font-size="14.00">SecurityModule</text>
</g>
<!-- AccessControlModule&#45;&gt;SecurityModule -->
<g id="edge1" class="edge">
<title>AccessControlModule&#45;&gt;SecurityModule</title>
<path fill="none" stroke="black" d="M482.41,-122.27C482.41,-140.56 482.41,-166 482.41,-166 482.41,-166 263.12,-166 263.12,-166"/>
<polygon fill="black" stroke="black" points="263.12,-162.5 253.12,-166 263.12,-169.5 263.12,-162.5"/>
</g>
<!-- CookieModule -->
<g id="node2" class="node">
<title>CookieModule</title>
<polygon fill="#8dd3c7" stroke="black" points="368.99,-122 365.99,-126 344.99,-126 341.99,-122 269.01,-122 269.01,-86 368.99,-86 368.99,-122"/>
<text text-anchor="middle" x="319" y="-99.8" font-family="Times,serif" font-size="14.00">CookieModule</text>
</g>
<!-- CookieModule&#45;&gt;SecurityModule -->
<g id="edge2" class="edge">
<title>CookieModule&#45;&gt;SecurityModule</title>
<path fill="none" stroke="black" d="M335.67,-122.01C335.67,-138.05 335.67,-159 335.67,-159 335.67,-159 263.23,-159 263.23,-159"/>
<polygon fill="black" stroke="black" points="263.23,-155.5 253.23,-159 263.23,-162.5 263.23,-155.5"/>
</g>
<!-- HashingModule -->
<g id="node3" class="node">
<title>HashingModule</title>
<polygon fill="#8dd3c7" stroke="black" points="251.21,-122 248.21,-126 227.21,-126 224.21,-122 144.79,-122 144.79,-86 251.21,-86 251.21,-122"/>
<text text-anchor="middle" x="198" y="-99.8" font-family="Times,serif" font-size="14.00">HashingModule</text>
</g>
<!-- HashingModule&#45;&gt;SecurityModule -->
<g id="edge3" class="edge">
<title>HashingModule&#45;&gt;SecurityModule</title>
<path fill="none" stroke="black" d="M199,-122.11C199,-122.11 199,-140.99 199,-140.99"/>
<polygon fill="black" stroke="black" points="195.5,-140.99 199,-150.99 202.5,-140.99 195.5,-140.99"/>
</g>
<!-- TokenModule -->
<g id="node4" class="node">
<title>TokenModule</title>
<polygon fill="#8dd3c7" stroke="black" points="126.82,-122 123.82,-126 102.82,-126 99.82,-122 31.18,-122 31.18,-86 126.82,-86 126.82,-122"/>
<text text-anchor="middle" x="79" y="-99.8" font-family="Times,serif" font-size="14.00">TokenModule</text>
</g>
<!-- TokenModule&#45;&gt;SecurityModule -->
<g id="edge4" class="edge">
<title>TokenModule&#45;&gt;SecurityModule</title>
<path fill="none" stroke="black" d="M92.05,-122.02C92.05,-139.37 92.05,-163 92.05,-163 92.05,-163 136.66,-163 136.66,-163"/>
<polygon fill="black" stroke="black" points="136.66,-166.5 146.66,-163 136.66,-159.5 136.66,-166.5"/>
</g>
<!-- AccessControlModule  -->
<g id="node6" class="node">
<title>AccessControlModule </title>
<polygon fill="#fb8072" stroke="black" points="534.97,-252 389.03,-252 389.03,-216 534.97,-216 534.97,-252"/>
<text text-anchor="middle" x="462" y="-229.8" font-family="Times,serif" font-size="14.00">AccessControlModule </text>
</g>
<!-- SecurityModule&#45;&gt;AccessControlModule  -->
<g id="edge5" class="edge">
<title>SecurityModule&#45;&gt;AccessControlModule </title>
<path fill="none" stroke="black" stroke-dasharray="5,2" d="M253.22,-173C322.78,-173 435.84,-173 435.84,-173 435.84,-173 435.84,-205.7 435.84,-205.7"/>
<polygon fill="black" stroke="black" points="432.34,-205.7 435.84,-215.7 439.34,-205.7 432.34,-205.7"/>
</g>
<!-- CookieModule  -->
<g id="node7" class="node">
<title>CookieModule </title>
<polygon fill="#fb8072" stroke="black" points="371.99,-252 268.01,-252 268.01,-216 371.99,-216 371.99,-252"/>
<text text-anchor="middle" x="320" y="-229.8" font-family="Times,serif" font-size="14.00">CookieModule </text>
</g>
<!-- SecurityModule&#45;&gt;CookieModule  -->
<g id="edge6" class="edge">
<title>SecurityModule&#45;&gt;CookieModule </title>
<path fill="none" stroke="black" stroke-dasharray="5,2" d="M253.27,-180C278.13,-180 302.33,-180 302.33,-180 302.33,-180 302.33,-205.72 302.33,-205.72"/>
<polygon fill="black" stroke="black" points="298.83,-205.72 302.33,-215.72 305.83,-205.72 298.83,-205.72"/>
</g>
<!-- HashingModule  -->
<g id="node8" class="node">
<title>HashingModule </title>
<polygon fill="#fb8072" stroke="black" points="249.71,-252 140.29,-252 140.29,-216 249.71,-216 249.71,-252"/>
<text text-anchor="middle" x="195" y="-229.8" font-family="Times,serif" font-size="14.00">HashingModule </text>
</g>
<!-- SecurityModule&#45;&gt;HashingModule  -->
<g id="edge7" class="edge">
<title>SecurityModule&#45;&gt;HashingModule </title>
<path fill="none" stroke="black" stroke-dasharray="5,2" d="M198.38,-187.11C198.38,-187.11 198.38,-205.99 198.38,-205.99"/>
<polygon fill="black" stroke="black" points="194.88,-205.99 198.38,-215.99 201.88,-205.99 194.88,-205.99"/>
</g>
<!-- TokenModule  -->
<g id="node9" class="node">
<title>TokenModule </title>
<polygon fill="#fb8072" stroke="black" points="122.32,-252 23.68,-252 23.68,-216 122.32,-216 122.32,-252"/>
<text text-anchor="middle" x="73" y="-229.8" font-family="Times,serif" font-size="14.00">TokenModule </text>
</g>
<!-- SecurityModule&#45;&gt;TokenModule  -->
<g id="edge8" class="edge">
<title>SecurityModule&#45;&gt;TokenModule </title>
<path fill="none" stroke="black" stroke-dasharray="5,2" d="M146.53,-175C107.61,-175 61.7,-175 61.7,-175 61.7,-175 61.7,-205.98 61.7,-205.98"/>
<polygon fill="black" stroke="black" points="58.2,-205.98 61.7,-215.98 65.2,-205.98 58.2,-205.98"/>
</g>
</g>
</svg>
