<?xml version="1.0" encoding="UTF-8" standalone="no"?>
<!DOCTYPE svg PUBLIC "-//W3C//DTD SVG 1.1//EN"
 "http://www.w3.org/Graphics/SVG/1.1/DTD/svg11.dtd">
<!-- Generated by graphviz version 2.47.0 (20210316.0004)
 -->
<!-- Title: dependencies Pages: 1 -->
<svg width="564pt" height="284pt"
 viewBox="0.00 0.00 564.00 284.00" xmlns="http://www.w3.org/2000/svg" xmlns:xlink="http://www.w3.org/1999/xlink">
<g id="graph0" class="graph" transform="scale(1 1) rotate(0) translate(4 280)">
<title>dependencies</title>
<polygon fill="white" stroke="transparent" points="-4,4 -4,-280 560,-280 560,4 -4,4"/>
<text text-anchor="start" x="257.01" y="-42.4" font-family="Times-12" font-weight="bold" font-size="14.00">Legend</text>
<polygon fill="#ffffb3" stroke="transparent" points="44,-10 44,-30 64,-30 64,-10 44,-10"/>
<text text-anchor="start" x="67.63" y="-15.4" font-family="Times-12" font-size="14.00"> &#160;Declarations</text>
<polygon fill="#8dd3c7" stroke="transparent" points="157,-10 157,-30 177,-30 177,-10 157,-10"/>
<text text-anchor="start" x="180.73" y="-15.4" font-family="Times-12" font-size="14.00"> &#160;Module</text>
<polygon fill="#80b1d3" stroke="transparent" points="243,-10 243,-30 263,-30 263,-10 243,-10"/>
<text text-anchor="start" x="266.78" y="-15.4" font-family="Times-12" font-size="14.00"> &#160;Bootstrap</text>
<polygon fill="#fdb462" stroke="transparent" points="340,-10 340,-30 360,-30 360,-10 340,-10"/>
<text text-anchor="start" x="363.67" y="-15.4" font-family="Times-12" font-size="14.00"> &#160;Providers</text>
<polygon fill="#fb8072" stroke="transparent" points="436,-10 436,-30 456,-30 456,-10 436,-10"/>
<text text-anchor="start" x="459.73" y="-15.4" font-family="Times-12" font-size="14.00"> &#160;Exports</text>
<g id="clust1" class="cluster">
<title>cluster_InfrastructureModule</title>
<polygon fill="none" stroke="black" stroke-dasharray="1,5" points="8,-70 8,-268 548,-268 548,-70 8,-70"/>
</g>
<g id="clust3" class="cluster">
<title>cluster_InfrastructureModule_imports</title>
<polygon fill="none" stroke="black" points="25,-78 25,-130 534,-130 534,-78 25,-78"/>
</g>
<g id="clust4" class="cluster">
<title>cluster_InfrastructureModule_exports</title>
<polygon fill="none" stroke="black" points="16,-208 16,-260 540,-260 540,-208 16,-208"/>
</g>
<!-- GreetingModule -->
<g id="node1" class="node">
<title>GreetingModule</title>
<polygon fill="#8dd3c7" stroke="black" points="526.03,-122 523.03,-126 502.03,-126 499.03,-122 417.97,-122 417.97,-86 526.03,-86 526.03,-122"/>
<text text-anchor="middle" x="472" y="-99.8" font-family="Times,serif" font-size="14.00">GreetingModule</text>
</g>
<!-- InfrastructureModule -->
<g id="node5" class="node">
<title>InfrastructureModule</title>
<polygon fill="#8dd3c7" stroke="black" points="312.72,-187 309.72,-191 288.72,-191 285.72,-187 177.28,-187 177.28,-151 312.72,-151 312.72,-187"/>
<text text-anchor="middle" x="245" y="-164.8" font-family="Times,serif" font-size="14.00">InfrastructureModule</text>
</g>
<!-- GreetingModule&#45;&gt;InfrastructureModule -->
<g id="edge1" class="edge">
<title>GreetingModule&#45;&gt;InfrastructureModule</title>
<path fill="none" stroke="black" d="M490.84,-122.02C490.84,-139.37 490.84,-163 490.84,-163 490.84,-163 322.83,-163 322.83,-163"/>
<polygon fill="black" stroke="black" points="322.83,-159.5 312.83,-163 322.83,-166.5 322.83,-159.5"/>
</g>
<!-- HealthModule -->
<g id="node2" class="node">
<title>HealthModule</title>
<polygon fill="#8dd3c7" stroke="black" points="399.37,-122 396.37,-126 375.37,-126 372.37,-122 302.63,-122 302.63,-86 399.37,-86 399.37,-122"/>
<text text-anchor="middle" x="351" y="-99.8" font-family="Times,serif" font-size="14.00">HealthModule</text>
</g>
<!-- HealthModule&#45;&gt;InfrastructureModule -->
<g id="edge2" class="edge">
<title>HealthModule&#45;&gt;InfrastructureModule</title>
<path fill="none" stroke="black" d="M307.71,-122.11C307.71,-122.11 307.71,-140.99 307.71,-140.99"/>
<polygon fill="black" stroke="black" points="304.21,-140.99 307.71,-150.99 311.21,-140.99 304.21,-140.99"/>
</g>
<!-- MailModule -->
<g id="node3" class="node">
<title>MailModule</title>
<polygon fill="#8dd3c7" stroke="black" points="284.99,-122 281.99,-126 260.99,-126 257.99,-122 199.01,-122 199.01,-86 284.99,-86 284.99,-122"/>
<text text-anchor="middle" x="242" y="-99.8" font-family="Times,serif" font-size="14.00">MailModule</text>
</g>
<!-- MailModule&#45;&gt;InfrastructureModule -->
<g id="edge3" class="edge">
<title>MailModule&#45;&gt;InfrastructureModule</title>
<path fill="none" stroke="black" d="M242,-122.11C242,-122.11 242,-140.99 242,-140.99"/>
<polygon fill="black" stroke="black" points="238.5,-140.99 242,-150.99 245.5,-140.99 238.5,-140.99"/>
</g>
<!-- SessionCleanupModule -->
<g id="node4" class="node">
<title>SessionCleanupModule</title>
<polygon fill="#8dd3c7" stroke="black" points="181.48,-122 178.48,-126 157.48,-126 154.48,-122 32.52,-122 32.52,-86 181.48,-86 181.48,-122"/>
<text text-anchor="middle" x="107" y="-99.8" font-family="Times,serif" font-size="14.00">SessionCleanupModule</text>
</g>
<!-- SessionCleanupModule&#45;&gt;InfrastructureModule -->
<g id="edge4" class="edge">
<title>SessionCleanupModule&#45;&gt;InfrastructureModule</title>
<path fill="none" stroke="black" d="M181.65,-104C186.94,-104 190.25,-104 190.25,-104 190.25,-104 190.25,-140.89 190.25,-140.89"/>
<polygon fill="black" stroke="black" points="186.75,-140.89 190.25,-150.89 193.75,-140.89 186.75,-140.89"/>
</g>
<!-- GreetingModule  -->
<g id="node6" class="node">
<title>GreetingModule </title>
<polygon fill="#fb8072" stroke="black" points="532.03,-252 419.97,-252 419.97,-216 532.03,-216 532.03,-252"/>
<text text-anchor="middle" x="476" y="-229.8" font-family="Times,serif" font-size="14.00">GreetingModule </text>
</g>
<!-- InfrastructureModule&#45;&gt;GreetingModule  -->
<g id="edge5" class="edge">
<title>InfrastructureModule&#45;&gt;GreetingModule </title>
<path fill="none" stroke="black" stroke-dasharray="5,2" d="M312.73,-175C374.24,-175 455.41,-175 455.41,-175 455.41,-175 455.41,-205.98 455.41,-205.98"/>
<polygon fill="black" stroke="black" points="451.91,-205.98 455.41,-215.98 458.91,-205.98 451.91,-205.98"/>
</g>
<!-- HealthModule  -->
<g id="node7" class="node">
<title>HealthModule </title>
<polygon fill="#fb8072" stroke="black" points="402.37,-252 301.63,-252 301.63,-216 402.37,-216 402.37,-252"/>
<text text-anchor="middle" x="352" y="-229.8" font-family="Times,serif" font-size="14.00">HealthModule </text>
</g>
<!-- InfrastructureModule&#45;&gt;HealthModule  -->
<g id="edge6" class="edge">
<title>InfrastructureModule&#45;&gt;HealthModule </title>
<path fill="none" stroke="black" stroke-dasharray="5,2" d="M307.34,-187.11C307.34,-187.11 307.34,-205.99 307.34,-205.99"/>
<polygon fill="black" stroke="black" points="303.84,-205.99 307.34,-215.99 310.84,-205.99 303.84,-205.99"/>
</g>
<!-- MailModule  -->
<g id="node8" class="node">
<title>MailModule </title>
<polygon fill="#fb8072" stroke="black" points="283.99,-252 194.01,-252 194.01,-216 283.99,-216 283.99,-252"/>
<text text-anchor="middle" x="239" y="-229.8" font-family="Times,serif" font-size="14.00">MailModule </text>
</g>
<!-- InfrastructureModule&#45;&gt;MailModule  -->
<g id="edge7" class="edge">
<title>InfrastructureModule&#45;&gt;MailModule </title>
<path fill="none" stroke="black" stroke-dasharray="5,2" d="M239,-187.11C239,-187.11 239,-205.99 239,-205.99"/>
<polygon fill="black" stroke="black" points="235.5,-205.99 239,-215.99 242.5,-205.99 235.5,-205.99"/>
</g>
<!-- SessionCleanupModule  -->
<g id="node9" class="node">
<title>SessionCleanupModule </title>
<polygon fill="#fb8072" stroke="black" points="176.48,-252 23.52,-252 23.52,-216 176.48,-216 176.48,-252"/>
<text text-anchor="middle" x="100" y="-229.8" font-family="Times,serif" font-size="14.00">SessionCleanupModule </text>
</g>
<!-- InfrastructureModule&#45;&gt;SessionCleanupModule  -->
<g id="edge8" class="edge">
<title>InfrastructureModule&#45;&gt;SessionCleanupModule </title>
<path fill="none" stroke="black" stroke-dasharray="5,2" d="M185.7,-187.11C185.7,-206.34 185.7,-234 185.7,-234 185.7,-234 184.78,-234 184.78,-234"/>
<polygon fill="black" stroke="black" points="186.53,-230.5 176.53,-234 186.53,-237.5 186.53,-230.5"/>
</g>
</g>
</svg>
