<?xml version="1.0" encoding="UTF-8" standalone="no"?>
<!DOCTYPE svg PUBLIC "-//W3C//DTD SVG 1.1//EN"
 "http://www.w3.org/Graphics/SVG/1.1/DTD/svg11.dtd">
<!-- Generated by graphviz version 2.47.0 (20210316.0004)
 -->
<!-- Title: dependencies Pages: 1 -->
<svg width="504pt" height="284pt"
 viewBox="0.00 0.00 504.00 284.00" xmlns="http://www.w3.org/2000/svg" xmlns:xlink="http://www.w3.org/1999/xlink">
<g id="graph0" class="graph" transform="scale(1 1) rotate(0) translate(4 280)">
<title>dependencies</title>
<polygon fill="white" stroke="transparent" points="-4,4 -4,-280 500,-280 500,4 -4,4"/>
<text text-anchor="start" x="227.01" y="-42.4" font-family="Times-12" font-weight="bold" font-size="14.00">Legend</text>
<polygon fill="#ffffb3" stroke="transparent" points="14,-10 14,-30 34,-30 34,-10 14,-10"/>
<text text-anchor="start" x="37.63" y="-15.4" font-family="Times-12" font-size="14.00"> &#160;Declarations</text>
<polygon fill="#8dd3c7" stroke="transparent" points="127,-10 127,-30 147,-30 147,-10 127,-10"/>
<text text-anchor="start" x="150.73" y="-15.4" font-family="Times-12" font-size="14.00"> &#160;Module</text>
<polygon fill="#80b1d3" stroke="transparent" points="213,-10 213,-30 233,-30 233,-10 213,-10"/>
<text text-anchor="start" x="236.78" y="-15.4" font-family="Times-12" font-size="14.00"> &#160;Bootstrap</text>
<polygon fill="#fdb462" stroke="transparent" points="310,-10 310,-30 330,-30 330,-10 310,-10"/>
<text text-anchor="start" x="333.67" y="-15.4" font-family="Times-12" font-size="14.00"> &#160;Providers</text>
<polygon fill="#fb8072" stroke="transparent" points="406,-10 406,-30 426,-30 426,-10 406,-10"/>
<text text-anchor="start" x="429.73" y="-15.4" font-family="Times-12" font-size="14.00"> &#160;Exports</text>
<g id="clust1" class="cluster">
<title>cluster_SessionModule</title>
<polygon fill="none" stroke="black" stroke-dasharray="1,5" points="71,-70 71,-268 425,-268 425,-70 71,-70"/>
</g>
<g id="clust6" class="cluster">
<title>cluster_SessionModule_providers</title>
<polygon fill="none" stroke="black" points="79,-78 79,-130 417,-130 417,-78 79,-78"/>
</g>
<g id="clust4" class="cluster">
<title>cluster_SessionModule_exports</title>
<polygon fill="none" stroke="black" points="102,-208 102,-260 364,-260 364,-208 102,-208"/>
</g>
<!-- SessionRepository  -->
<g id="node1" class="node">
<title>SessionRepository </title>
<polygon fill="#fb8072" stroke="black" points="355.71,-252 232.29,-252 232.29,-216 355.71,-216 355.71,-252"/>
<text text-anchor="middle" x="294" y="-229.8" font-family="Times,serif" font-size="14.00">SessionRepository </text>
</g>
<!-- SessionService  -->
<g id="node2" class="node">
<title>SessionService </title>
<polygon fill="#fb8072" stroke="black" points="214.25,-252 109.75,-252 109.75,-216 214.25,-216 214.25,-252"/>
<text text-anchor="middle" x="162" y="-229.8" font-family="Times,serif" font-size="14.00">SessionService </text>
</g>
<!-- SessionModule -->
<g id="node3" class="node">
<title>SessionModule</title>
<polygon fill="#8dd3c7" stroke="black" points="236.33,-187 233.33,-191 212.33,-191 209.33,-187 133.67,-187 133.67,-151 236.33,-151 236.33,-187"/>
<text text-anchor="middle" x="185" y="-164.8" font-family="Times,serif" font-size="14.00">SessionModule</text>
</g>
<!-- SessionModule&#45;&gt;SessionRepository  -->
<g id="edge1" class="edge">
<title>SessionModule&#45;&gt;SessionRepository </title>
<path fill="none" stroke="black" stroke-dasharray="5,2" d="M223.13,-187.11C223.13,-206.34 223.13,-234 223.13,-234 223.13,-234 224.03,-234 224.03,-234"/>
<polygon fill="black" stroke="black" points="222.11,-237.5 232.11,-234 222.11,-230.5 222.11,-237.5"/>
</g>
<!-- SessionModule&#45;&gt;SessionService  -->
<g id="edge2" class="edge">
<title>SessionModule&#45;&gt;SessionService </title>
<path fill="none" stroke="black" stroke-dasharray="5,2" d="M173.98,-187.11C173.98,-187.11 173.98,-205.99 173.98,-205.99"/>
<polygon fill="black" stroke="black" points="170.48,-205.99 173.98,-215.99 177.48,-205.99 170.48,-205.99"/>
</g>
<!-- SessionRepository -->
<g id="node4" class="node">
<title>SessionRepository</title>
<ellipse fill="#fdb462" stroke="black" cx="326" cy="-104" rx="82.84" ry="18"/>
<text text-anchor="middle" x="326" y="-99.8" font-family="Times,serif" font-size="14.00">SessionRepository</text>
</g>
<!-- SessionRepository&#45;&gt;SessionModule -->
<g id="edge3" class="edge">
<title>SessionRepository&#45;&gt;SessionModule</title>
<path fill="none" stroke="black" d="M242.88,-104C235.55,-104 230.83,-104 230.83,-104 230.83,-104 230.83,-140.89 230.83,-140.89"/>
<polygon fill="black" stroke="black" points="227.33,-140.89 230.83,-150.89 234.33,-140.89 227.33,-140.89"/>
</g>
<!-- SessionService -->
<g id="node5" class="node">
<title>SessionService</title>
<ellipse fill="#fdb462" stroke="black" cx="156" cy="-104" rx="69.5" ry="18"/>
<text text-anchor="middle" x="156" y="-99.8" font-family="Times,serif" font-size="14.00">SessionService</text>
</g>
<!-- SessionService&#45;&gt;SessionModule -->
<g id="edge4" class="edge">
<title>SessionService&#45;&gt;SessionModule</title>
<path fill="none" stroke="black" d="M179.67,-121.08C179.67,-121.08 179.67,-140.9 179.67,-140.9"/>
<polygon fill="black" stroke="black" points="176.17,-140.9 179.67,-150.9 183.17,-140.9 176.17,-140.9"/>
</g>
</g>
</svg>
